<?xml version="1.0" standalone="no"?>
<!DOCTYPE svg PUBLIC "-//W3C//DTD SVG 20010904//EN"
 "http://www.w3.org/TR/2001/REC-SVG-20010904/DTD/svg10.dtd">
<svg version="1.0" xmlns="http://www.w3.org/2000/svg"
 width="533.000000pt" height="533.000000pt" viewBox="0 0 533.000000 533.000000"
 preserveAspectRatio="xMidYMid meet">
<metadata>
Created by potrace 1.11, written by Peter Selinger 2001-2013
</metadata>
<g transform="translate(0.000000,533.000000) scale(0.100000,-0.100000)"
fill="#000000" stroke="none">
<path d="M790 5308 c-213 -35 -383 -121 -526 -266 -69 -69 -159 -214 -194
-310 -58 -162 -56 -84 -55 -2107 2 -2063 -3 -1920 67 -2085 50 -119 101 -194
192 -286 120 -120 293 -217 438 -244 32 -6 781 -10 1982 -10 l1932 0 74 24
c298 93 514 308 605 603 l25 78 0 1940 c0 1892 0 1942 -19 2010 -92 331 -352
573 -695 647 -59 13 -3750 19 -3826 6z"/>
</g>
</svg>
